<svg width="140" height="36" viewBox="0 0 140 36" fill="none" xmlns="http://www.w3.org/2000/svg">
<path d="M67.8563 12.8034C67.258 11.3687 66.2388 10.1491 64.9332 9.3054C63.5379 8.43577 61.9193 7.99216 60.2756 8.02895C58.6906 8.0029 57.1281 8.40698 55.7545 9.19821C54.4174 9.98058 53.3295 11.1259 52.6169 12.5014C51.7865 14.0487 51.3672 15.7832 51.3989 17.539C51.3858 19.2647 51.8045 20.9663 52.6169 22.4889C53.334 23.8726 54.4287 25.0247 55.7739 25.8115C57.1132 26.5483 58.6122 26.9468 60.1406 26.9723C61.6689 26.9977 63.1803 26.6494 64.5434 25.9577C65.7999 25.2761 66.8474 24.2656 67.5738 23.0345C68.3646 21.6962 68.813 20.1834 68.8795 18.6303H59.3402V16.8082H71.2082V18.4549C71.1266 20.3503 70.5741 22.1955 69.6005 23.8238C68.6508 25.4029 67.3079 26.7088 65.7029 27.6141C64.0353 28.5518 62.1496 29.0325 60.2366 29.0075C58.2492 29.0291 56.2919 28.5213 54.5657 27.5362C52.872 26.5688 51.4818 25.1482 50.5512 23.434C49.5588 21.6295 49.0519 19.5982 49.0799 17.539C49.0435 15.4602 49.5507 13.408 50.5512 11.5855C51.4774 9.85549 52.8676 8.41804 54.5657 7.43457C56.4166 6.41757 58.5061 5.91465 60.6171 5.97805C62.7281 6.04145 64.7836 6.66885 66.5702 7.7951C68.3706 9.01429 69.7358 10.7754 70.4677 12.8229L67.8563 12.8034Z" fill="#030303"/>
<path d="M75.3884 15.1809C76.0669 13.8612 77.1081 12.7626 78.3895 12.0142C79.7096 11.263 81.2069 10.8795 82.7255 10.9034C84.2555 10.8636 85.7645 11.2662 87.0713 12.0629C88.2144 12.7601 89.1288 13.7761 89.7021 14.9861V11.0885H91.953V28.7737H89.7021V24.8761C89.1132 26.1032 88.1872 27.1374 87.0323 27.8577C85.734 28.6678 84.226 29.0779 82.6963 29.0367C81.1849 29.0562 79.6965 28.6656 78.3895 27.9065C77.106 27.1476 76.0651 26.0391 75.3884 24.7105C74.6423 23.2315 74.2709 21.592 74.3068 19.936C74.2709 18.2861 74.6424 16.6529 75.3884 15.1809ZM88.8252 16.2235C88.283 15.1908 87.4629 14.3301 86.4574 13.7389C85.4496 13.161 84.3062 12.8617 83.1445 12.8717C81.9733 12.8547 80.818 13.1435 79.7926 13.7096C78.7936 14.278 77.9812 15.1243 77.4541 16.1456C76.8556 17.3174 76.5608 18.6207 76.5966 19.936C76.5653 21.2508 76.8599 22.553 77.4541 23.7263C77.9692 24.7687 78.7834 25.6337 79.7926 26.211C80.8122 26.7766 81.959 27.0734 83.125 27.0734C84.291 27.0734 85.4378 26.7766 86.4574 26.211C87.4629 25.6197 88.283 24.7591 88.8252 23.7263C89.4268 22.5689 89.7283 21.2791 89.7021 19.9749C89.7283 18.6708 89.4268 17.3809 88.8252 16.2235Z" fill="#030303"/>
<path d="M100.05 13.0665V23.9992C99.9629 24.794 100.182 25.5921 100.664 26.2305C101.279 26.7059 102.054 26.9258 102.827 26.8444H104.893V28.7932H102.476C101.192 28.8961 99.9174 28.498 98.9198 27.6824C98.4882 27.1822 98.1629 26.5995 97.9636 25.9697C97.7642 25.3398 97.6951 24.676 97.7603 24.0187V13.0665H95.3146V11.1665H97.7603V6.74277H100.05V11.1665H104.922V13.0665H100.05Z" fill="#030303"/>
<path d="M124.478 20.8421H109.862C109.89 22.0466 110.226 23.2238 110.837 24.2622C111.387 25.1749 112.179 25.917 113.126 26.4059C114.085 26.8962 115.148 27.147 116.225 27.1367C117.538 27.18 118.832 26.8047 119.918 26.0649C120.889 25.3734 121.58 24.3572 121.867 23.2002H124.254C123.846 24.8786 122.872 26.3651 121.496 27.4095C119.96 28.5336 118.089 29.1068 116.186 29.0367C114.63 29.0619 113.095 28.6789 111.733 27.9259C110.429 27.1819 109.361 26.0841 108.654 24.7592C107.886 23.2802 107.504 21.6312 107.543 19.9652C107.505 18.2984 107.88 16.648 108.634 15.1615C109.324 13.8297 110.392 12.7313 111.704 12.0045C113.078 11.2567 114.622 10.8774 116.186 10.9034C117.726 10.87 119.247 11.2502 120.59 12.0045C121.818 12.688 122.83 13.7003 123.513 14.9276C124.185 16.192 124.521 17.608 124.488 19.0395C124.536 19.8385 124.517 20.4621 124.478 20.8421ZM121.457 15.6487C120.934 14.744 120.154 14.0149 119.216 13.5537C118.254 13.0759 117.192 12.8322 116.118 12.8424C114.535 12.8064 112.999 13.3823 111.83 14.4502C111.221 15.042 110.734 15.7489 110.4 16.53C110.065 17.3111 109.889 18.1509 109.882 19.0006H122.266C122.318 17.8294 122.038 16.6674 121.457 15.6487Z" fill="#030303"/>
<path d="M129.866 26.9028H139.094V28.7737H127.284V26.9028L136.346 13.0373H127.44V11.1665H138.928V13.0373L129.866 26.9028Z" fill="#030303"/>
<path d="M34.2595 0H11.9362L0 20.6668L3.71242 29.1634L10.4065 29.1732L21.1637 10.5331H14.7912L13.5245 12.7255L11.2932 12.7158L15.2881 5.80735L30.8881 5.83658L34.2595 0Z" fill="url(#paint0_radial_11902_277064)"/>
<path d="M7.0448 35H29.368L41.3043 14.3332L37.5919 5.83658H30.8978L20.1308 24.4669H26.5131L27.7798 22.2745L30.0111 22.2842L26.0161 29.1926L10.4162 29.1634L7.0448 35Z" fill="url(#paint1_radial_11902_277064)"/>
<defs>
<radialGradient id="paint0_radial_11902_277064" cx="0" cy="0" r="1" gradientUnits="userSpaceOnUse" gradientTransform="translate(19.9749 19.0006) rotate(-122.661) scale(22.5692 28.8466)">
<stop stop-color="#00D1FF"/>
<stop offset="1" stop-color="#1A90E7"/>
</radialGradient>
<radialGradient id="paint1_radial_11902_277064" cx="0" cy="0" r="1" gradientUnits="userSpaceOnUse" gradientTransform="translate(20.4621 8.76949) rotate(71.9395) scale(23.5723 22.9679)">
<stop stop-color="#8F00FF"/>
<stop offset="1" stop-color="#532BC5"/>
</radialGradient>
</defs>
</svg>
