<svg width="224" height="60" viewBox="0 0 224 60" fill="none" xmlns="http://www.w3.org/2000/svg">
<path d="M94.896 25.64C94.4907 24.8933 93.904 24.328 93.136 23.944C92.3893 23.5387 91.504 23.336 90.48 23.336C88.7093 23.336 87.2907 23.9227 86.224 25.096C85.1573 26.248 84.624 27.7947 84.624 29.736C84.624 31.8053 85.1787 33.4267 86.288 34.6C87.4187 35.752 88.9653 36.328 90.928 36.328C92.272 36.328 93.4027 35.9867 94.32 35.304C95.2587 34.6213 95.9413 33.64 96.368 32.36H89.424V28.328H101.328V33.416C100.923 34.7813 100.229 36.0507 99.248 37.224C98.288 38.3973 97.0613 39.3467 95.568 40.072C94.0747 40.7973 92.3893 41.16 90.512 41.16C88.2933 41.16 86.3093 40.68 84.56 39.72C82.832 38.7387 81.4773 37.384 80.496 35.656C79.536 33.928 79.056 31.9547 79.056 29.736C79.056 27.5173 79.536 25.544 80.496 23.816C81.4773 22.0667 82.832 20.712 84.56 19.752C86.288 18.7707 88.2613 18.28 90.48 18.28C93.168 18.28 95.4293 18.9307 97.264 20.232C99.12 21.5333 100.347 23.336 100.944 25.64H94.896ZM118.983 18.536V22.92H109.831V27.656H116.679V31.912H109.831V41H104.359V18.536H118.983ZM120.931 29.736C120.931 27.5173 121.411 25.544 122.371 23.816C123.331 22.0667 124.664 20.712 126.371 19.752C128.099 18.7707 130.051 18.28 132.227 18.28C134.894 18.28 137.176 18.984 139.075 20.392C140.974 21.8 142.243 23.72 142.883 26.152H136.867C136.419 25.2133 135.779 24.4987 134.947 24.008C134.136 23.5173 133.208 23.272 132.163 23.272C130.478 23.272 129.112 23.8587 128.067 25.032C127.022 26.2053 126.499 27.7733 126.499 29.736C126.499 31.6987 127.022 33.2667 128.067 34.44C129.112 35.6133 130.478 36.2 132.163 36.2C133.208 36.2 134.136 35.9547 134.947 35.464C135.779 34.9733 136.419 34.2587 136.867 33.32H142.883C142.243 35.752 140.974 37.672 139.075 39.08C137.176 40.4667 134.894 41.16 132.227 41.16C130.051 41.16 128.099 40.68 126.371 39.72C124.664 38.7387 123.331 37.384 122.371 35.656C121.411 33.928 120.931 31.9547 120.931 29.736Z" fill="#868686"/>
</svg>
