<svg width="224" height="60" viewBox="0 0 224 60" fill="none" xmlns="http://www.w3.org/2000/svg">
<g opacity="0.6">
<path fill-rule="evenodd" clip-rule="evenodd" d="M64.4369 18.8799V28.6594H54.9526V18.8799H50V41.4729H54.9521V31.1769H64.4364V41.4729H69.389V18.8794H64.4369V18.8799ZM75.83 31.1769H81.7211C81.8501 28.0783 80.5554 27.0133 79.0666 27.0133C77.4157 27.0133 75.9594 28.4661 75.83 31.1769ZM76.0906 33.7264C76.8676 36.9214 79.4566 38.1159 81.6581 38.1159C83.5353 38.1159 85.2183 37.503 86.2224 36.5023C85.9631 39.6651 83.3737 41.7951 79.5539 41.7951C75.2489 41.7951 71.6236 38.5033 71.6236 33.5649C71.6236 28.5304 74.9579 24.7864 79.5543 24.7864C84.0856 24.7864 86.2546 27.7234 86.2546 30.2734C86.2546 30.402 86.2546 30.5314 86.2224 30.7247L76.0906 33.7264Z" fill="#1F191A"/>
<mask id="mask0_11902_277262" style="mask-type:alpha" maskUnits="userSpaceOnUse" x="105" y="18" width="17" height="24">
<path fill-rule="evenodd" clip-rule="evenodd" d="M105.936 18.2499H121.57V41.7951H105.936V18.2499Z" fill="white"/>
</mask>
<g mask="url(#mask0_11902_277262)">
<path fill-rule="evenodd" clip-rule="evenodd" d="M117.038 38.019V28.143C116.326 27.4007 115.419 26.949 114.319 26.949C112.345 26.949 110.726 28.6273 110.726 32.145C110.726 35.8569 112.215 38.6001 115.064 38.6001C115.808 38.6001 116.488 38.3421 117.038 38.0194V38.019ZM121.57 41.4724H117.038V38.7617C116.197 40.4717 114.545 41.7951 112.312 41.7951C108.914 41.7951 105.936 38.7617 105.936 33.7586C105.936 28.4979 109.14 24.7864 114.158 24.7864C115.064 24.7864 116.099 24.9476 117.038 25.2707V19.5921L121.57 18.2503V41.4729V41.4724Z" fill="#1F191A"/>
</g>
<mask id="mask1_11902_277262" style="mask-type:alpha" maskUnits="userSpaceOnUse" x="50" y="18" width="125" height="24">
<path fill-rule="evenodd" clip-rule="evenodd" d="M50 41.7956H174.397V18.2499H50V41.7956Z" fill="white"/>
</mask>
<g mask="url(#mask1_11902_277262)">
<path fill-rule="evenodd" clip-rule="evenodd" d="M134.095 22.515H139.053V19.0209H134.095V22.515ZM99.1426 38.019V28.143C98.4303 27.4007 97.5239 26.949 96.4238 26.949C94.4493 26.949 92.8306 28.6273 92.8306 32.145C92.8306 35.8569 94.3195 38.6001 97.1682 38.6001C97.9126 38.6001 98.5923 38.3421 99.1426 38.0194V38.019ZM103.674 41.4724H99.1426V38.7617C98.3013 40.4717 96.65 41.7951 94.4163 41.7951C91.0178 41.7951 88.04 38.7617 88.04 33.7586C88.04 28.4979 91.2445 24.786 96.2618 24.786C98.1385 24.786 99.1752 25.8 99.1752 25.8L103.674 24.4671V41.4724ZM125.682 19.5926L130.181 18.2597V41.472H125.682V19.5926ZM134.326 26.112L138.825 24.7791V41.472H134.326V26.112ZM142.967 26.112L147.466 24.777V27.9493C148.567 26.1746 150.25 24.7864 152.807 24.7864C155.494 24.7864 157.533 26.5616 157.533 30.3377V41.4724H153.033V31.8544C153.033 29.3044 151.965 28.0461 149.797 28.0461C149.02 28.0461 148.243 28.272 147.466 28.6273V41.4724H142.967V26.112ZM163.972 31.1769H169.863C169.993 28.0783 168.698 27.0133 167.209 27.0133C165.558 27.0133 164.102 28.4661 163.972 31.1769ZM164.233 33.7264C165.01 36.9214 167.599 38.1159 169.801 38.1159C171.678 38.1159 173.361 37.503 174.365 36.5023C174.106 39.6651 171.516 41.7951 167.696 41.7951C163.391 41.7951 159.766 38.5033 159.766 33.5649C159.766 28.5304 163.1 24.7864 167.696 24.7864C172.228 24.7864 174.397 27.7234 174.397 30.2734C174.397 30.402 174.397 30.5314 174.365 30.7247L164.233 33.7264Z" fill="#1F191A"/>
</g>
</g>
</svg>
