<svg width="125" height="40" viewBox="0 0 125 40" fill="none" xmlns="http://www.w3.org/2000/svg">
<g clip-path="url(#clip0_11902_276985)">
<path d="M53.0612 30.8775C51.7908 30.9077 50.5316 30.6349 49.3877 30.0816C48.3774 29.5677 47.5296 28.7835 46.9387 27.8163C46.3383 26.8339 46.0271 25.7022 46.0408 24.551C45.99 23.4017 46.3044 22.2658 46.9387 21.3061C47.5713 20.4074 48.44 19.7011 49.4489 19.2653C48.9463 19.0024 48.4911 18.6575 48.102 18.2449C47.6967 17.8324 47.3836 17.3385 47.1836 16.7959C46.9862 16.2329 46.9029 15.6363 46.9387 15.0408C46.9018 14.0567 47.1574 13.0837 47.6734 12.2449C48.1997 11.4146 48.9495 10.7497 49.8367 10.3265C50.85 9.85544 51.9539 9.61139 53.0714 9.61139C54.1888 9.61139 55.2928 9.85544 56.3061 10.3265C57.1856 10.7612 57.9326 11.4236 58.4693 12.2449C58.9782 13.0859 59.2267 14.0587 59.1836 15.0408C59.1949 16.2289 58.7492 17.376 57.9387 18.2449C57.5395 18.6583 57.0695 18.997 56.551 19.2449C57.5679 19.6765 58.4443 20.3833 59.0816 21.2857C59.7521 22.2201 60.1157 23.3397 60.1224 24.4898C60.1488 25.6371 59.8457 26.768 59.2488 27.7483C58.652 28.7286 57.7865 29.5171 56.755 30.0204C55.6081 30.5921 54.3427 30.8857 53.0612 30.8775ZM53.0612 28.1428C53.7674 28.1573 54.467 28.0034 55.102 27.6938C55.6962 27.4005 56.1977 26.9484 56.551 26.3877C56.9152 25.8197 57.1196 25.1641 57.1428 24.4898C57.1536 23.8218 56.9768 23.1643 56.6326 22.5918C56.2895 22.0147 55.7956 21.5419 55.204 21.2245C54.5581 20.8761 53.8358 20.6938 53.102 20.6938C52.3682 20.6938 51.6458 20.8761 50.9999 21.2245C50.5618 21.4778 50.178 21.8153 49.8709 22.2175C49.5637 22.6198 49.3391 23.0788 49.2101 23.5683C49.0811 24.0577 49.0503 24.5678 49.1193 25.0692C49.1883 25.5706 49.3558 26.0534 49.6122 26.4898C49.9551 27.0442 50.4417 27.4956 51.0204 27.7959C51.6654 28.0654 52.3634 28.184 53.0612 28.1428ZM53.0612 18.0612C53.9096 18.1007 54.7413 17.8162 55.3877 17.2653C55.6772 17.0123 55.9064 16.6977 56.0582 16.3445C56.2101 15.9913 56.2808 15.6086 56.2653 15.2245C56.2699 14.8399 56.1922 14.4588 56.0373 14.1068C55.8824 13.7548 55.654 13.44 55.3673 13.1836C54.7127 12.6689 53.9041 12.3891 53.0714 12.3891C52.2386 12.3891 51.4301 12.6689 50.7755 13.1836C50.4888 13.44 50.2603 13.7548 50.1054 14.1068C49.9505 14.4588 49.8728 14.8399 49.8775 15.2245C49.8619 15.6086 49.9327 15.9913 50.0845 16.3445C50.2364 16.6977 50.4655 17.0123 50.7551 17.2653C51.3921 17.8186 52.2185 18.1038 53.0612 18.0612Z" fill="white"/>
<path d="M68.0816 36.7347L66.5918 34.3877C67.7046 34.3461 68.8082 34.1679 69.8775 33.8571C70.5734 33.6787 71.1993 33.2947 71.6734 32.7551C72.0616 32.2305 72.2628 31.5911 72.2449 30.9388V29.2245C71.8069 29.763 71.2474 30.1899 70.6124 30.4702C69.9773 30.7505 69.2848 30.8761 68.5918 30.8367C67.4294 30.8695 66.2865 30.5338 65.3265 29.8775C64.4008 29.1778 63.6931 28.2294 63.2857 27.1428C62.757 25.8484 62.5 24.4591 62.5306 23.0612C62.5068 21.6639 62.7636 20.2759 63.2857 18.9796C63.6829 17.8705 64.3828 16.8949 65.3061 16.1632C66.2765 15.5129 67.4239 15.1779 68.5918 15.2041C69.2908 15.1997 69.9839 15.3314 70.6326 15.5918C71.2266 15.8285 71.7626 16.1905 72.2041 16.653V15.5714H75.102V29.8571C75.1242 30.8642 74.9935 31.8688 74.7143 32.8367C74.4699 33.6122 74.0349 34.3139 73.449 34.8775C72.8184 35.4686 72.0661 35.9144 71.2449 36.1837C70.2185 36.5024 69.1553 36.6876 68.0816 36.7347ZM69.1428 28.0816C69.7547 28.078 70.3541 27.9087 70.8775 27.5918C71.4339 27.2579 71.9026 26.7962 72.2449 26.2449V19.7143C71.9149 19.1603 71.4519 18.6973 70.8979 18.3673C70.3715 18.0576 69.774 17.8889 69.1632 17.8775C68.6223 17.8444 68.0816 17.9465 67.5899 18.1745C67.0983 18.4025 66.6711 18.7493 66.3469 19.1837C65.5784 20.3168 65.212 21.6749 65.3061 23.0408C65.2796 23.9678 65.4392 24.8908 65.7755 25.7551C66.0334 26.4534 66.4868 27.0626 67.0816 27.5102C67.682 27.9368 68.4069 28.1522 69.1428 28.1224V28.0816Z" fill="white"/>
<path d="M78.5918 30.6122V10.7347L81.5102 9.38776V30.6122H78.5918Z" fill="white"/>
<path d="M89.3061 30.8776C87.8956 30.9624 86.5089 30.4855 85.449 29.551C84.9793 29.07 84.6137 28.4974 84.375 27.8689C84.1362 27.2404 84.0294 26.5695 84.0612 25.898C84.0349 24.9784 84.276 24.071 84.7551 23.2857C85.2442 22.5192 85.9564 21.9209 86.7959 21.5714C87.7374 21.1452 88.7627 20.9359 89.7959 20.9592C90.483 20.9449 91.1691 21.0204 91.8367 21.1837C92.4447 21.3121 93.0297 21.5323 93.5714 21.8367V20.8163C93.6086 20.3977 93.5609 19.9758 93.4311 19.576C93.3014 19.1763 93.0923 18.8068 92.8163 18.4898C92.498 18.2158 92.1284 18.0079 91.729 17.8783C91.3295 17.7486 90.9083 17.6998 90.4898 17.7347C89.7251 17.7375 88.9662 17.8686 88.2449 18.1224C87.4573 18.3972 86.7093 18.7746 86.0204 19.2449L85.102 16.8571C85.9183 16.3202 86.8135 15.9139 87.7551 15.6531C88.7131 15.3546 89.7108 15.2032 90.7143 15.2041C92.2047 15.1094 93.6721 15.6083 94.7959 16.5918C95.2897 17.144 95.6671 17.79 95.9055 18.4913C96.144 19.1926 96.2386 19.9348 96.1837 20.6735V30.6122H93.4898V29.3061C92.9389 29.8388 92.2865 30.2552 91.5714 30.5306C90.8449 30.7878 90.0763 30.9055 89.3061 30.8776ZM89.7959 28.3673C90.5032 28.3702 91.2017 28.2095 91.8367 27.898C92.4809 27.5857 93.0566 27.1487 93.5306 26.6122V24.2857C93.0279 24.0105 92.4933 23.798 91.9388 23.6531C91.381 23.4945 90.8043 23.4121 90.2245 23.4082C89.3563 23.3576 88.4957 23.5943 87.7755 24.0816C87.4902 24.2893 87.2595 24.563 87.1031 24.8793C86.9467 25.1957 86.8693 25.5452 86.8775 25.898C86.8622 26.2414 86.9261 26.5839 87.0641 26.8988C87.2021 27.2137 87.4105 27.4927 87.6734 27.7143C88.2882 28.1628 89.0353 28.3927 89.7959 28.3673Z" fill="white"/>
<path d="M105.714 30.8776C105.047 30.8933 104.385 30.7609 103.775 30.4898C103.141 30.1975 102.572 29.7812 102.102 29.2653V30.6122H99.1837V10.7347L102.041 9.38776V16.8163C102.477 16.3085 103.021 15.9042 103.633 15.6327C104.274 15.3431 104.97 15.1968 105.673 15.2041C106.841 15.1806 107.988 15.5153 108.959 16.1633C109.921 16.855 110.671 17.8023 111.122 18.898C111.658 20.1909 111.922 21.5803 111.898 22.9796C112.027 25.0627 111.428 27.126 110.204 28.8163C109.673 29.4918 108.989 30.0311 108.208 30.3896C107.428 30.748 106.573 30.9153 105.714 30.8776ZM105.327 28.1224C105.846 28.1501 106.365 28.0446 106.833 27.8161C107.3 27.5875 107.702 27.2434 108 26.8163C108.697 25.6855 109.025 24.3662 108.939 23.0408C109.028 21.7113 108.708 20.3864 108.02 19.2449C107.719 18.8162 107.314 18.4713 106.843 18.2427C106.371 18.0142 105.85 17.9096 105.327 17.9388C104.682 17.9418 104.05 18.1105 103.49 18.4286C102.927 18.7346 102.45 19.1766 102.102 19.7143V26.3469C102.441 26.8901 102.911 27.3393 103.469 27.6531C104.035 27.9748 104.676 28.137 105.327 28.1224Z" fill="white"/>
<path d="M118.612 30.8775C117.526 30.8814 116.453 30.6444 115.469 30.1836C114.519 29.7559 113.686 29.1048 113.041 28.2857L115.082 26.5714C115.568 27.1167 116.158 27.5606 116.816 27.8775C117.408 28.1657 118.056 28.3191 118.714 28.3265C119.425 28.3915 120.138 28.2346 120.755 27.8775C120.974 27.7439 121.154 27.5544 121.276 27.3285C121.398 27.1026 121.458 26.8484 121.449 26.5918C121.45 26.2478 121.343 25.9121 121.143 25.6326C120.849 25.2849 120.488 25.0002 120.082 24.7959C119.417 24.4686 118.736 24.1757 118.041 23.9183C116.717 23.5037 115.499 22.8075 114.469 21.8775C114.118 21.5245 113.843 21.1035 113.66 20.6402C113.478 20.177 113.392 19.6813 113.408 19.1836C113.39 18.6368 113.5 18.0932 113.731 17.5969C113.961 17.1006 114.305 16.6654 114.735 16.3265C115.786 15.5574 117.065 15.1623 118.367 15.2041C119.371 15.1971 120.364 15.3987 121.286 15.7959C122.16 16.1983 122.934 16.791 123.551 17.5306L121.51 19.1428C121.108 18.7101 120.622 18.3639 120.082 18.1253C119.541 17.8867 118.958 17.7607 118.367 17.7551C117.775 17.7265 117.187 17.8681 116.673 18.1632C116.477 18.2715 116.315 18.4315 116.203 18.6258C116.091 18.8201 116.035 19.0413 116.041 19.2653C116.052 19.5091 116.123 19.7465 116.248 19.9564C116.372 20.1664 116.546 20.3425 116.755 20.4694C117.574 20.9744 118.451 21.3786 119.367 21.6734C120.315 21.9808 121.22 22.4059 122.061 22.9387C122.682 23.3285 123.195 23.8691 123.551 24.5102C123.889 25.1361 124.058 25.8397 124.041 26.551C124.066 27.1602 123.947 27.7668 123.691 28.3205C123.436 28.8742 123.052 29.359 122.571 29.7347C121.419 30.5526 120.023 30.9555 118.612 30.8775Z" fill="white"/>
<path d="M33.7553 8.40781L20.6941 0.673118C19.9628 0.243201 19.132 0.0114329 18.2838 0.00069599C17.4356 -0.0100409 16.5993 0.200624 15.8573 0.611894L2.63285 8.16291C1.90737 8.57437 1.30062 9.16644 0.87151 9.88162C0.442402 10.5968 0.205521 11.4108 0.183871 12.2445L0.000197688 27.367C-0.011292 28.2171 0.201492 29.0552 0.617106 29.7968C1.03272 30.5385 1.63648 31.1575 2.36754 31.5915L15.4084 39.3262C16.145 39.7467 16.9785 39.9679 17.8267 39.9679C18.6749 39.9679 19.5085 39.7467 20.2451 39.3262L33.4696 31.8772C34.2002 31.4699 34.8121 30.8793 35.2451 30.1636C35.6781 29.4479 35.9173 28.6318 35.939 27.7956L36.1022 12.6323C36.1138 11.7846 35.9032 10.9486 35.4915 10.2075C35.0797 9.46633 34.4812 8.84589 33.7553 8.40781ZM19.6533 26.7752C19.6577 27.0357 19.5919 27.2927 19.4626 27.519C19.3333 27.7452 19.1453 27.9324 18.9186 28.0609L13.041 31.3874C12.8183 31.5184 12.5647 31.5875 12.3063 31.5875C12.048 31.5875 11.7943 31.5184 11.5716 31.3874L5.67367 27.9996C5.44975 27.868 5.26414 27.6801 5.13526 27.4545C5.00639 27.229 4.93872 26.9737 4.93897 26.7139V21.3058L8.12265 23.1425V25.3874C8.12608 25.4915 8.156 25.5929 8.20956 25.6822C8.26313 25.7715 8.33857 25.8456 8.42877 25.8976L12.0614 27.9384C12.1365 27.9795 12.2207 28.001 12.3063 28.001C12.3919 28.001 12.4761 27.9795 12.5512 27.9384L16.2247 25.8976C16.296 25.8501 16.3553 25.7867 16.3978 25.7123C16.4403 25.6379 16.4649 25.5546 16.4696 25.469V23.1425L19.6737 24.9792L19.6533 26.7752ZM24.5512 24.7343C24.3285 24.8653 24.0749 24.9344 23.8165 24.9344C23.5582 24.9344 23.3045 24.8653 23.0818 24.7343L16.4696 20.918L12.592 18.6731C12.5014 18.6231 12.3996 18.5969 12.2961 18.5969C12.1926 18.5969 12.0908 18.6231 12.0002 18.6731L8.16346 20.918L4.95938 19.0813L11.5716 15.2445C11.7975 15.1231 12.0499 15.0595 12.3063 15.0595C12.5627 15.0595 12.8152 15.1231 13.041 15.2445L19.6533 19.0813L23.7349 21.4894L27.8165 19.0813L31.0206 20.918L24.5512 24.7343ZM28.0002 16.8568V14.5507C28.0057 14.4631 27.9855 14.3759 27.9419 14.2997C27.8984 14.2235 27.8335 14.1618 27.7553 14.1221L24.0818 12.0813C24.0067 12.0402 23.9225 12.0187 23.8369 12.0187C23.7513 12.0187 23.6671 12.0402 23.592 12.0813L19.9594 14.1221C19.8746 14.1733 19.804 14.245 19.754 14.3306C19.7041 14.4161 19.6765 14.5129 19.6737 14.6119V16.8568L16.4696 14.9996V13.3058C16.4661 13.0351 16.5365 12.7685 16.6731 12.5348C16.8098 12.3011 17.0075 12.109 17.2451 11.9792L23.041 8.61189C23.2787 8.48149 23.5454 8.41313 23.8165 8.41313C24.0876 8.41313 24.3544 8.48149 24.592 8.61189L30.4084 11.9792C30.6431 12.1124 30.8384 12.3052 30.9746 12.5381C31.1108 12.7711 31.183 13.0359 31.1839 13.3058V18.6935L28.0002 16.8568Z" fill="white"/>
</g>
<defs>
<clipPath id="clip0_11902_276985">
<rect width="124.102" height="40" fill="white"/>
</clipPath>
</defs>
</svg>
