<svg width="32" height="32" viewBox="0 0 32 32" fill="none" xmlns="http://www.w3.org/2000/svg">
<path d="M26.46 10C25.69 10.35 24.86 10.58 24 10.69C24.88 10.16 25.56 9.32 25.88 8.31C25.05 8.81 24.13 9.16 23.16 9.36C22.37 8.5 21.26 8 20 8C17.65 8 15.73 9.92 15.73 12.29C15.73 12.63 15.77 12.96 15.84 13.27C12.28 13.09 9.10998 11.38 6.99998 8.79C6.62998 9.42 6.41998 10.16 6.41998 10.94C6.41998 12.43 7.16998 13.75 8.32998 14.5C7.61998 14.5 6.95998 14.3 6.37998 14C6.37998 14 6.37998 14 6.37998 14.03C6.37998 16.11 7.85998 17.85 9.81998 18.24C9.45998 18.34 9.07998 18.39 8.68998 18.39C8.41998 18.39 8.14998 18.36 7.88998 18.31C8.42998 20 9.99998 21.26 11.89 21.29C10.43 22.45 8.57998 23.13 6.55998 23.13C6.21998 23.13 5.87998 23.11 5.53998 23.07C7.43998 24.29 9.69998 25 12.12 25C20 25 24.33 18.46 24.33 12.79C24.33 12.6 24.33 12.42 24.32 12.23C25.16 11.63 25.88 10.87 26.46 10Z"/>
</svg>
