<svg width="32" height="32" viewBox="0 0 32 32" fill="none" xmlns="http://www.w3.org/2000/svg">
<path d="M16 7.83472C11.6205 7.83472 8.54837 9.87713 8.54837 9.87713C10.2315 8.2432 13.173 7.30192 13.173 7.30192L12.8952 7C10.1335 7.05328 7.63326 9.13121 7.63326 9.13121C4.82256 15.5071 5.00231 21.0127 5.00231 21.0127C7.29009 24.2272 10.6891 23.9964 10.6891 23.9964L11.8493 22.398C9.80665 21.9184 8.51569 19.9471 8.51569 19.9471C8.51569 19.9471 11.5879 22.2204 16 22.2204C20.4121 22.2204 23.4843 19.9471 23.4843 19.9471C23.4843 19.9471 22.1933 21.9184 20.1507 22.398L21.3109 23.9964C21.3109 23.9964 24.7099 24.2272 26.9977 21.0127C26.9977 21.0127 27.1774 15.5071 24.3667 9.13121C24.3667 9.13121 21.8665 7.05328 19.1048 7L18.827 7.30192C18.827 7.30192 21.7685 8.2432 23.4516 9.87713C23.4516 9.87713 20.3795 7.83472 16 7.83472ZM12.6174 14.5658C13.6795 14.5658 14.5456 15.5781 14.5293 16.8213C14.5293 18.0467 13.6795 19.0768 12.6174 19.0768C11.5715 19.0768 10.7218 18.0467 10.7218 16.8213C10.7218 15.5781 11.5552 14.5658 12.6174 14.5658ZM19.4317 14.5658C20.4939 14.5658 21.3436 15.5781 21.3436 16.8213C21.3436 18.0467 20.4939 19.0768 19.4317 19.0768C18.3858 19.0768 17.5361 18.0467 17.5361 16.8213C17.5361 15.5781 18.3695 14.5658 19.4317 14.5658Z"/>
</svg>
